<svg width="32" height="32" viewBox="0 0 32 32" fill="none" xmlns="http://www.w3.org/2000/svg">
<g id="Frame 4" clip-path="url(#clip0_14_121)">
<g id="å¿ƒè„">
<g id="å¿ƒè„_2">
<path id="Vector 1133" d="M17.1326 3.88938C19.6253 4.07499 20.3908 6.67356 20.4619 7.94964C22.8521 7.52418 24.3888 7.94964 24.6022 8.80045C25.1771 11.0924 21.5511 11.1591 20.2059 11.5073C19.7278 11.631 19.5229 12.4611 19.4803 12.8607C22.4696 12.6673 22.9344 14.584 24.3888 16.3409C26.6436 19.0646 26.3096 23.2501 26.3096 26.6269C26.3096 26.9749 26.0535 29.7978 25.7547 30.2232C25.4559 30.6485 24.2181 31.3446 22.6388 31.4992C20.0668 31.7511 8.86307 30.1933 8.55331 26.1242C6.63015 25.0111 5.58162 23.2712 5.82158 21.0972C5.86426 20.7105 6.29109 16.8436 6.29109 16.4183C6.29109 15.9929 5.56548 11.7006 5.90694 9.96053C6.24841 8.22042 6.76061 8.33642 7.23013 8.14308C7.69964 7.94973 8.98014 8.41376 8.85209 8.25909C8.74965 8.13534 7.64273 5.50069 7.10208 4.19883C7.31549 2.18803 9.54543 2.68831 9.70576 2.88408C9.86783 3.08196 10.9355 4.79846 11.4558 5.55225L11.6691 5.3589C11.6122 4.22457 11.8228 1.77806 13.1204 1.06661C14.4179 0.355153 15.0838 1.13103 15.2545 1.6079C16.8338 0.0998036 18.8826 1.1052 18.157 1.95592C17.5765 2.6365 17.2322 3.52847 17.1326 3.88938Z" fill="white" fill-opacity="0.19" stroke="#0D0C0C" stroke-width="0.967742" stroke-linecap="round" stroke-linejoin="round">
                                    <animate attributeName="d" values="M17.1326 3.88938C19.6253 4.07499 20.3908 6.67356 20.4619 7.94964C22.8521 7.52418 24.3888 7.94964 24.6022 8.80045C25.1771 11.0924 21.5511 11.1591 20.2059 11.5073C19.7278 11.631 19.5229 12.4611 19.4803 12.8607C22.4696 12.6673 22.9344 14.584 24.3888 16.3409C26.6436 19.0646 26.3096 23.2501 26.3096 26.6269C26.3096 26.9749 26.0535 29.7978 25.7547 30.2232C25.4559 30.6485 24.2181 31.3446 22.6388 31.4992C20.0668 31.7511 8.86307 30.1933 8.55331 26.1242C6.63015 25.0111 5.58162 23.2712 5.82158 21.0972C5.86426 20.7105 6.29109 16.8436 6.29109 16.4183C6.29109 15.9929 5.56548 11.7006 5.90694 9.96053C6.24841 8.22042 6.76061 8.33642 7.23013 8.14308C7.69964 7.94973 8.98014 8.41376 8.85209 8.25909C8.74965 8.13534 7.64273 5.50069 7.10208 4.19883C7.31549 2.18803 9.54543 2.68831 9.70576 2.88408C9.86783 3.08196 10.9355 4.79846 11.4558 5.55225L11.6691 5.3589C11.6122 4.22457 11.8228 1.77806 13.1204 1.06661C14.4179 0.355153 15.0838 1.13103 15.2545 1.6079C16.8338 0.0998036 18.8826 1.1052 18.157 1.95592C17.5765 2.6365 17.2322 3.52847 17.1326 3.88938Z;M17.1327 3.88938C19.6254 4.07499 20.3908 6.67356 20.462 7.94964C22.8522 7.52418 24.3889 7.94964 24.6023 8.80045C25.1772 11.0924 21.5512 11.1591 20.2059 11.5073C19.7279 11.631 19.523 12.4611 19.4803 12.8607C22.4697 12.6673 22.9344 14.584 24.3889 16.3409C26.6437 19.0646 26.3096 23.2501 26.3096 26.6269C26.3096 26.9749 26.0535 29.7978 25.7548 30.2232C25.456 30.6485 24.2182 31.3446 22.6389 31.4992C20.0668 31.7511 8.86313 30.1933 8.55337 26.1242C6.63021 25.0111 5.58168 23.2712 5.82164 21.0972C5.86432 20.7105 6.29115 16.8436 6.29115 16.4183C6.29115 15.9929 5.56554 11.7006 5.907 9.96053C6.24847 8.22042 6.76067 8.33642 7.23019 8.14308C7.6997 7.94973 8.98021 8.41376 8.85215 8.25909C8.74971 8.13534 7.64279 5.50069 7.10214 4.19883C7.31556 2.18803 9.54549 2.68831 9.70582 2.88408C9.86789 3.08196 10.9355 4.79846 11.4558 5.55225L11.6692 5.3589C11.6123 4.22457 11.8229 1.77806 13.1204 1.06661C14.418 0.355153 15.0839 1.13103 15.2546 1.6079C16.8339 0.0998036 18.8827 1.1052 18.1571 1.95592C17.5766 2.6365 17.2323 3.52847 17.1327 3.88938Z;M17.1326 3.88938C19.6253 4.07499 20.3908 6.67356 20.4619 7.94964C22.8521 7.52418 24.3888 7.94964 24.6022 8.80045C25.1771 11.0924 21.5511 11.1591 20.2059 11.5073C19.7278 11.631 19.5229 12.4611 19.4803 12.8607C22.4696 12.6673 22.9344 14.584 24.3888 16.3409C26.6436 19.0646 26.3096 23.2501 26.3096 26.6269C26.3096 26.9749 26.0535 29.7978 25.7547 30.2232C25.4559 30.6485 24.2181 31.3446 22.6388 31.4992C20.0668 31.7511 8.86307 30.1933 8.55331 26.1242C6.63015 25.0111 5.58162 23.2712 5.82158 21.0972C5.86426 20.7105 6.29109 16.8436 6.29109 16.4183C6.29109 15.9929 5.56548 11.7006 5.90694 9.96053C6.24841 8.22042 6.76061 8.33642 7.23013 8.14308C7.69964 7.94973 8.98014 8.41376 8.85209 8.25909C8.74965 8.13534 7.64273 5.50069 7.10208 4.19883C7.31549 2.18803 9.54543 2.68831 9.70576 2.88408C9.86783 3.08196 10.9355 4.79846 11.4558 5.55225L11.6691 5.3589C11.6122 4.22457 11.8228 1.77806 13.1204 1.06661C14.4179 0.355153 15.0838 1.13103 15.2545 1.6079C16.8338 0.0998036 18.8826 1.1052 18.157 1.95592C17.5765 2.6365 17.2322 3.52847 17.1326 3.88938Z" begin="0s" dur="3s" repeatCount="indefinite" fill="freeze" calcMode="linear" keyTimes="0;0.5;1"/></path>
<path id="Vector 1140" d="M9.94672 15.7755C9.88942 15.7895 9.7863 15.8847 9.83213 16.1535" stroke="#EAEAEB" stroke-width="0.967742" stroke-linecap="round">
                                    <animate attributeName="d" values="M9.94672 15.7755C9.88942 15.7895 9.7863 15.8847 9.83213 16.1535;M9.94675 15.7755C9.88945 15.7895 9.78633 15.8847 9.83216 16.1535;M9.94672 15.7755C9.88942 15.7895 9.7863 15.8847 9.83213 16.1535" begin="0s" dur="3s" repeatCount="indefinite" fill="freeze" calcMode="linear" keyTimes="0;0.5;1"/></path>
<path id="Vector 1139" d="M10.5763 28.1984C10.7192 28.301 11.0307 28.4678 11.1335 28.3139C11.2621 28.1214 11.1335 27.8519 10.7906 27.159C10.4477 26.466 11.3479 26.1196 11.3907 25.8886C11.4336 25.6576 11.6908 25.3111 11.5622 24.5797C11.7908 24.3487 12.1451 23.7636 11.7336 23.2708C11.848 23.1553 12.1109 22.9705 12.248 23.1553C12.4195 23.3863 12.8053 24.1563 13.2339 24.2333C13.6626 24.3103 14.3913 24.2718 14.5627 24.4643C14.7342 24.6568 15.3772 24.8493 15.6772 24.7338C15.9773 24.6183 16.1916 24.0408 15.5486 23.4249C15.5772 23.1811 15.5829 22.6242 15.3772 22.347C15.12 22.0005 14.5627 21.962 14.3913 21.885C14.2198 21.808 14.5199 21.0381 14.6485 20.9996C14.7771 20.9611 15.3772 20.6916 15.7629 20.2682C16.1487 19.8447 16.3631 18.3049 16.3631 18.0354C16.5059 17.9712 16.8174 17.8121 16.9203 17.6889C17.0489 17.5349 17.5204 18.1894 17.9491 18.3049C18.3777 18.4204 19.6637 18.459 19.8351 18.459C19.8208 18.9338 19.9037 19.9911 20.3495 20.4223C20.9067 20.9613 21.3783 21.3462 21.464 21.4617C21.5497 21.5772 21.6354 22.0777 22.0212 22.3086C21.9498 23.0657 21.8926 24.6107 22.2355 24.7339C22.6642 24.8879 23.5215 23.271 23.5644 23.0786C23.6072 22.8861 23.4786 22.3856 23.6072 22.2316C23.7358 22.0777 24.3788 21.4617 24.5074 20.2298C24.636 18.9979 24.3788 18.5745 24.2931 18.151C24.2073 17.7275 24.3788 17.766 24.4217 17.766C24.4645 17.766 25.1504 17.843 25.1932 17.689" stroke="#878787" stroke-width="0.967742" stroke-linecap="round" stroke-linejoin="round">
                                    <animate attributeName="d" values="M10.5763 28.1984C10.7192 28.301 11.0307 28.4678 11.1335 28.3139C11.2621 28.1214 11.1335 27.8519 10.7906 27.159C10.4477 26.466 11.3479 26.1196 11.3907 25.8886C11.4336 25.6576 11.6908 25.3111 11.5622 24.5797C11.7908 24.3487 12.1451 23.7636 11.7336 23.2708C11.848 23.1553 12.1109 22.9705 12.248 23.1553C12.4195 23.3863 12.8053 24.1563 13.2339 24.2333C13.6626 24.3103 14.3913 24.2718 14.5627 24.4643C14.7342 24.6568 15.3772 24.8493 15.6772 24.7338C15.9773 24.6183 16.1916 24.0408 15.5486 23.4249C15.5772 23.1811 15.5829 22.6242 15.3772 22.347C15.12 22.0005 14.5627 21.962 14.3913 21.885C14.2198 21.808 14.5199 21.0381 14.6485 20.9996C14.7771 20.9611 15.3772 20.6916 15.7629 20.2682C16.1487 19.8447 16.3631 18.3049 16.3631 18.0354C16.5059 17.9712 16.8174 17.8121 16.9203 17.6889C17.0489 17.5349 17.5204 18.1894 17.9491 18.3049C18.3777 18.4204 19.6637 18.459 19.8351 18.459C19.8208 18.9338 19.9037 19.9911 20.3495 20.4223C20.9067 20.9613 21.3783 21.3462 21.464 21.4617C21.5497 21.5772 21.6354 22.0777 22.0212 22.3086C21.9498 23.0657 21.8926 24.6107 22.2355 24.7339C22.6642 24.8879 23.5215 23.271 23.5644 23.0786C23.6072 22.8861 23.4786 22.3856 23.6072 22.2316C23.7358 22.0777 24.3788 21.4617 24.5074 20.2298C24.636 18.9979 24.3788 18.5745 24.2931 18.151C24.2073 17.7275 24.3788 17.766 24.4217 17.766C24.4645 17.766 25.1504 17.843 25.1932 17.689;M10.5764 28.1984C10.7192 28.301 11.0307 28.4678 11.1336 28.3139C11.2622 28.1214 11.1336 27.8519 10.7907 27.159C10.4478 26.466 11.3479 26.1196 11.3908 25.8886C11.4337 25.6576 11.6908 25.3111 11.5622 24.5797C11.7909 24.3487 12.1452 23.7636 11.7337 23.2708C11.848 23.1553 12.1109 22.9705 12.2481 23.1553C12.4195 23.3863 12.8053 24.1563 13.234 24.2333C13.6626 24.3103 14.3913 24.2718 14.5628 24.4643C14.7343 24.6568 15.3772 24.8493 15.6773 24.7338C15.9773 24.6183 16.1917 24.0408 15.5487 23.4249C15.5773 23.1811 15.583 22.6242 15.3772 22.347C15.12 22.0005 14.5628 21.962 14.3913 21.885C14.2199 21.808 14.5199 21.0381 14.6485 20.9996C14.7771 20.9611 15.3772 20.6916 15.763 20.2682C16.1488 19.8447 16.3631 18.3049 16.3631 18.0354C16.506 17.9712 16.8175 17.8121 16.9204 17.6889C17.049 17.5349 17.5205 18.1894 17.9491 18.3049C18.3778 18.4204 19.6637 18.459 19.8352 18.459C19.8209 18.9338 19.9038 19.9911 20.3496 20.4223C20.9068 20.9613 21.3783 21.3462 21.464 21.4617C21.5498 21.5772 21.6355 22.0777 22.0213 22.3086C21.9498 23.0657 21.8927 24.6107 22.2356 24.7339C22.6643 24.8879 23.5216 23.271 23.5644 23.0786C23.6073 22.8861 23.4787 22.3856 23.6073 22.2316C23.7359 22.0777 24.3789 21.4617 24.5075 20.2298C24.636 18.9979 24.3789 18.5745 24.2931 18.151C24.2074 17.7275 24.3789 17.766 24.4217 17.766C24.4646 17.766 25.1504 17.843 25.1933 17.689;M10.5763 28.1984C10.7192 28.301 11.0307 28.4678 11.1335 28.3139C11.2621 28.1214 11.1335 27.8519 10.7906 27.159C10.4477 26.466 11.3479 26.1196 11.3907 25.8886C11.4336 25.6576 11.6908 25.3111 11.5622 24.5797C11.7908 24.3487 12.1451 23.7636 11.7336 23.2708C11.848 23.1553 12.1109 22.9705 12.248 23.1553C12.4195 23.3863 12.8053 24.1563 13.2339 24.2333C13.6626 24.3103 14.3913 24.2718 14.5627 24.4643C14.7342 24.6568 15.3772 24.8493 15.6772 24.7338C15.9773 24.6183 16.1916 24.0408 15.5486 23.4249C15.5772 23.1811 15.5829 22.6242 15.3772 22.347C15.12 22.0005 14.5627 21.962 14.3913 21.885C14.2198 21.808 14.5199 21.0381 14.6485 20.9996C14.7771 20.9611 15.3772 20.6916 15.7629 20.2682C16.1487 19.8447 16.3631 18.3049 16.3631 18.0354C16.5059 17.9712 16.8174 17.8121 16.9203 17.6889C17.0489 17.5349 17.5204 18.1894 17.9491 18.3049C18.3777 18.4204 19.6637 18.459 19.8351 18.459C19.8208 18.9338 19.9037 19.9911 20.3495 20.4223C20.9067 20.9613 21.3783 21.3462 21.464 21.4617C21.5497 21.5772 21.6354 22.0777 22.0212 22.3086C21.9498 23.0657 21.8926 24.6107 22.2355 24.7339C22.6642 24.8879 23.5215 23.271 23.5644 23.0786C23.6072 22.8861 23.4786 22.3856 23.6072 22.2316C23.7358 22.0777 24.3788 21.4617 24.5074 20.2298C24.636 18.9979 24.3788 18.5745 24.2931 18.151C24.2073 17.7275 24.3788 17.766 24.4217 17.766C24.4645 17.766 25.1504 17.843 25.1932 17.689" begin="0s" dur="3s" repeatCount="indefinite" fill="freeze" calcMode="linear" keyTimes="0;0.5;1"/></path>
<path id="Vector 1138" d="M6.29227 16.6349C6.56065 16.1857 7.233 15.3104 7.77541 15.4028C8.45342 15.5183 9.93656 15.942 10.8264 16.9431C11.7163 17.9442 10.8264 20.0233 10.3603 20.5238C9.89419 21.0244 9.85181 21.5249 9.80944 21.6789C9.76706 21.8329 9.0043 23.142 9.13143 23.6426C9.25855 24.1431 8.75005 26.0297 8.53817 26.1067" stroke="#878787" stroke-width="0.967742" stroke-linecap="round">
                                    <animate attributeName="d" values="M6.29227 16.6349C6.56065 16.1857 7.233 15.3104 7.77541 15.4028C8.45342 15.5183 9.93656 15.942 10.8264 16.9431C11.7163 17.9442 10.8264 20.0233 10.3603 20.5238C9.89419 21.0244 9.85181 21.5249 9.80944 21.6789C9.76706 21.8329 9.0043 23.142 9.13143 23.6426C9.25855 24.1431 8.75005 26.0297 8.53817 26.1067;M6.2923 16.6349C6.56068 16.1857 7.23303 15.3104 7.77544 15.4028C8.45345 15.5183 9.93659 15.942 10.8265 16.9431C11.7164 17.9442 10.8265 20.0233 10.3603 20.5238C9.89422 21.0244 9.85184 21.5249 9.80947 21.6789C9.76709 21.8329 9.00433 23.142 9.13146 23.6426C9.25858 24.1431 8.75008 26.0297 8.5382 26.1067;M6.29227 16.6349C6.56065 16.1857 7.233 15.3104 7.77541 15.4028C8.45342 15.5183 9.93656 15.942 10.8264 16.9431C11.7163 17.9442 10.8264 20.0233 10.3603 20.5238C9.89419 21.0244 9.85181 21.5249 9.80944 21.6789C9.76706 21.8329 9.0043 23.142 9.13143 23.6426C9.25855 24.1431 8.75005 26.0297 8.53817 26.1067" begin="0s" dur="3s" repeatCount="indefinite" fill="freeze" calcMode="linear" keyTimes="0;0.5;1"/></path>
<path id="Vector 1136" d="M14.4825 14.4538C14.7288 14.8899 15.5862 15.6695 17.0462 15.3002C17.7626 15.119 18.685 14.8455 19.0015 14.3C19.2622 13.1458 19.0884 13.0304 19.5229 12.8765" stroke="#878787" stroke-width="0.967742" stroke-linecap="round">
                                    <animate attributeName="d" values="M14.4825 14.4538C14.7288 14.8899 15.5862 15.6695 17.0462 15.3002C17.7626 15.119 18.685 14.8455 19.0015 14.3C19.2622 13.1458 19.0884 13.0304 19.5229 12.8765;M14.4826 14.4538C14.7288 14.8899 15.5863 15.6695 17.0462 15.3002C17.7626 15.119 18.6851 14.8455 19.0015 14.3C19.2622 13.1458 19.0884 13.0304 19.5229 12.8765;M14.4825 14.4538C14.7288 14.8899 15.5862 15.6695 17.0462 15.3002C17.7626 15.119 18.685 14.8455 19.0015 14.3C19.2622 13.1458 19.0884 13.0304 19.5229 12.8765" begin="0s" dur="3s" repeatCount="indefinite" fill="freeze" calcMode="linear" keyTimes="0;0.5;1"/></path>
<path id="Vector 1135" d="M8.86556 8.27183C8.95134 8.54253 9.08858 9.1922 8.95134 9.62531C8.30092 11.678 8.71451 16.3975 11.6962 16.2767C13.3597 16.2093 13.8701 15.7275 14.5696 14.4592C14.4982 13.1186 14.4581 10.3446 14.8699 9.97335C15.0843 9.66399 15.4559 9.18062 15.9849 9.08392C17.3517 8.8341 17.7862 9.39329 20.531 7.96246" stroke="#878787" stroke-width="0.967742" stroke-linecap="round">
                                    <animate attributeName="d" values="M8.86556 8.27183C8.95134 8.54253 9.08858 9.1922 8.95134 9.62531C8.30092 11.678 8.71451 16.3975 11.6962 16.2767C13.3597 16.2093 13.8701 15.7275 14.5696 14.4592C14.4982 13.1186 14.4581 10.3446 14.8699 9.97335C15.0843 9.66399 15.4559 9.18062 15.9849 9.08392C17.3517 8.8341 17.7862 9.39329 20.531 7.96246;M8.86563 8.27183C8.9514 8.54253 9.08864 9.1922 8.9514 9.62531C8.30098 11.678 8.71457 16.3975 11.6963 16.2767C13.3598 16.2093 13.8702 15.7275 14.5697 14.4592C14.4982 13.1186 14.4582 10.3446 14.8699 9.97335C15.0844 9.66399 15.4559 9.18062 15.985 9.08392C17.3518 8.8341 17.7863 9.39329 20.531 7.96246;M8.86556 8.27183C8.95134 8.54253 9.08858 9.1922 8.95134 9.62531C8.30092 11.678 8.71451 16.3975 11.6962 16.2767C13.3597 16.2093 13.8701 15.7275 14.5696 14.4592C14.4982 13.1186 14.4581 10.3446 14.8699 9.97335C15.0843 9.66399 15.4559 9.18062 15.9849 9.08392C17.3517 8.8341 17.7862 9.39329 20.531 7.96246" begin="0s" dur="3s" repeatCount="indefinite" fill="freeze" calcMode="linear" keyTimes="0;0.5;1"/></path>
<path id="Vector 1141" d="M15.3647 1.40945C15.1392 1.73997 14.7678 3.02071 14.6087 3.92962" stroke="#F5F5F5" stroke-width="0.967742" stroke-linecap="round">
                                    <animate attributeName="d" values="M15.3647 1.40945C15.1392 1.73997 14.7678 3.02071 14.6087 3.92962;M15.3648 1.40945C15.1393 1.73997 14.7679 3.02071 14.6087 3.92962;M15.3647 1.40945C15.1392 1.73997 14.7678 3.02071 14.6087 3.92962" begin="0s" dur="3s" repeatCount="indefinite" fill="freeze" calcMode="linear" keyTimes="0;0.5;1"/></path>
<path id="Vector 1142" d="M17.1326 3.88938C19.6253 4.07499 20.3908 6.67356 20.4619 7.94964C22.8521 7.52418 24.3888 7.94964 24.6022 8.80045C25.1771 11.0924 21.5511 11.1591 20.2059 11.5073C19.7278 11.631 19.5229 12.4611 19.4803 12.8607C22.4696 12.6673 22.9344 14.584 24.3888 16.3409C26.6436 19.0646 26.3096 23.2501 26.3096 26.6269C26.3096 26.9749 26.0535 29.7978 25.7547 30.2232C25.4559 30.6485 24.2181 31.3446 22.6388 31.4992C20.0668 31.7511 8.86307 30.1933 8.55331 26.1242C6.63015 25.0111 5.58162 23.2712 5.82158 21.0972C5.86426 20.7105 6.29109 16.8436 6.29109 16.4183C6.29109 15.9929 5.56548 11.7006 5.90694 9.96053C6.24841 8.22042 6.76061 8.33642 7.23013 8.14308C7.69964 7.94973 8.98014 8.41376 8.85209 8.25909C8.74965 8.13534 7.64273 5.50069 7.10208 4.19883C7.31549 2.18803 9.54543 2.68831 9.70576 2.88408C9.86783 3.08196 10.9355 4.79846 11.4558 5.55225L11.6691 5.3589C11.6122 4.22457 11.8228 1.77806 13.1204 1.06661C14.4179 0.355153 15.0838 1.13103 15.2545 1.6079C16.8338 0.0998036 18.8826 1.1052 18.157 1.95592C17.5765 2.6365 17.2322 3.52847 17.1326 3.88938Z" stroke="#0D0C0C" stroke-width="0.967742" stroke-linecap="round" stroke-linejoin="round">
                                    <animate attributeName="d" values="M17.1326 3.88938C19.6253 4.07499 20.3908 6.67356 20.4619 7.94964C22.8521 7.52418 24.3888 7.94964 24.6022 8.80045C25.1771 11.0924 21.5511 11.1591 20.2059 11.5073C19.7278 11.631 19.5229 12.4611 19.4803 12.8607C22.4696 12.6673 22.9344 14.584 24.3888 16.3409C26.6436 19.0646 26.3096 23.2501 26.3096 26.6269C26.3096 26.9749 26.0535 29.7978 25.7547 30.2232C25.4559 30.6485 24.2181 31.3446 22.6388 31.4992C20.0668 31.7511 8.86307 30.1933 8.55331 26.1242C6.63015 25.0111 5.58162 23.2712 5.82158 21.0972C5.86426 20.7105 6.29109 16.8436 6.29109 16.4183C6.29109 15.9929 5.56548 11.7006 5.90694 9.96053C6.24841 8.22042 6.76061 8.33642 7.23013 8.14308C7.69964 7.94973 8.98014 8.41376 8.85209 8.25909C8.74965 8.13534 7.64273 5.50069 7.10208 4.19883C7.31549 2.18803 9.54543 2.68831 9.70576 2.88408C9.86783 3.08196 10.9355 4.79846 11.4558 5.55225L11.6691 5.3589C11.6122 4.22457 11.8228 1.77806 13.1204 1.06661C14.4179 0.355153 15.0838 1.13103 15.2545 1.6079C16.8338 0.0998036 18.8826 1.1052 18.157 1.95592C17.5765 2.6365 17.2322 3.52847 17.1326 3.88938Z;M17.1327 3.88938C19.6254 4.07499 20.3908 6.67356 20.462 7.94964C22.8522 7.52418 24.3889 7.94964 24.6023 8.80045C25.1772 11.0924 21.5512 11.1591 20.2059 11.5073C19.7279 11.631 19.523 12.4611 19.4803 12.8607C22.4697 12.6673 22.9344 14.584 24.3889 16.3409C26.6437 19.0646 26.3096 23.2501 26.3096 26.6269C26.3096 26.9749 26.0535 29.7978 25.7548 30.2232C25.456 30.6485 24.2182 31.3446 22.6389 31.4992C20.0668 31.7511 8.86313 30.1933 8.55337 26.1242C6.63021 25.0111 5.58168 23.2712 5.82164 21.0972C5.86432 20.7105 6.29115 16.8436 6.29115 16.4183C6.29115 15.9929 5.56554 11.7006 5.907 9.96053C6.24847 8.22042 6.76067 8.33642 7.23019 8.14308C7.6997 7.94973 8.98021 8.41376 8.85215 8.25909C8.74971 8.13534 7.64279 5.50069 7.10214 4.19883C7.31556 2.18803 9.54549 2.68831 9.70582 2.88408C9.86789 3.08196 10.9355 4.79846 11.4558 5.55225L11.6692 5.3589C11.6123 4.22457 11.8229 1.77806 13.1204 1.06661C14.418 0.355153 15.0839 1.13103 15.2546 1.6079C16.8339 0.0998036 18.8827 1.1052 18.1571 1.95592C17.5766 2.6365 17.2323 3.52847 17.1327 3.88938Z;M17.1326 3.88938C19.6253 4.07499 20.3908 6.67356 20.4619 7.94964C22.8521 7.52418 24.3888 7.94964 24.6022 8.80045C25.1771 11.0924 21.5511 11.1591 20.2059 11.5073C19.7278 11.631 19.5229 12.4611 19.4803 12.8607C22.4696 12.6673 22.9344 14.584 24.3888 16.3409C26.6436 19.0646 26.3096 23.2501 26.3096 26.6269C26.3096 26.9749 26.0535 29.7978 25.7547 30.2232C25.4559 30.6485 24.2181 31.3446 22.6388 31.4992C20.0668 31.7511 8.86307 30.1933 8.55331 26.1242C6.63015 25.0111 5.58162 23.2712 5.82158 21.0972C5.86426 20.7105 6.29109 16.8436 6.29109 16.4183C6.29109 15.9929 5.56548 11.7006 5.90694 9.96053C6.24841 8.22042 6.76061 8.33642 7.23013 8.14308C7.69964 7.94973 8.98014 8.41376 8.85209 8.25909C8.74965 8.13534 7.64273 5.50069 7.10208 4.19883C7.31549 2.18803 9.54543 2.68831 9.70576 2.88408C9.86783 3.08196 10.9355 4.79846 11.4558 5.55225L11.6691 5.3589C11.6122 4.22457 11.8228 1.77806 13.1204 1.06661C14.4179 0.355153 15.0838 1.13103 15.2545 1.6079C16.8338 0.0998036 18.8826 1.1052 18.157 1.95592C17.5765 2.6365 17.2322 3.52847 17.1326 3.88938Z" begin="0s" dur="3s" repeatCount="indefinite" fill="freeze" calcMode="linear" keyTimes="0;0.5;1"/></path>
<path id="1" d="M27.3355 11.0061C27.3097 10.9928 27.3097 10.955 27.3355 10.9417L28.3313 10.4285C28.36 10.4138 28.3824 10.3889 28.3944 10.3585L28.8993 9.08252C28.9111 9.05247 28.9528 9.05247 28.9647 9.08252L29.4695 10.3585C29.4815 10.3889 29.504 10.4138 29.5326 10.4285L30.5284 10.9417C30.5543 10.955 30.5543 10.9928 30.5284 11.0061L29.5326 11.5193C29.504 11.534 29.4815 11.5589 29.4695 11.5893L28.9647 12.8653C28.9528 12.8953 28.9111 12.8953 28.8993 12.8653L28.3944 11.5893C28.3824 11.5589 28.36 11.534 28.3313 11.5193L27.3355 11.0061Z" fill="#0D0C0C">
                                    <animate attributeName="d" values="M27.3355 11.0061C27.3097 10.9928 27.3097 10.955 27.3355 10.9417L28.3313 10.4285C28.36 10.4138 28.3824 10.3889 28.3944 10.3585L28.8993 9.08252C28.9111 9.05247 28.9528 9.05247 28.9647 9.08252L29.4695 10.3585C29.4815 10.3889 29.504 10.4138 29.5326 10.4285L30.5284 10.9417C30.5543 10.955 30.5543 10.9928 30.5284 11.0061L29.5326 11.5193C29.504 11.534 29.4815 11.5589 29.4695 11.5893L28.9647 12.8653C28.9528 12.8953 28.9111 12.8953 28.8993 12.8653L28.3944 11.5893C28.3824 11.5589 28.36 11.534 28.3313 11.5193L27.3355 11.0061Z;M28.2715 12.4829C28.2456 12.4696 28.2456 12.4319 28.2715 12.4186L28.3642 12.3708C28.3928 12.356 28.4152 12.3311 28.4273 12.3007L28.4766 12.1761C28.4885 12.146 28.5301 12.146 28.542 12.1761L28.5913 12.3007C28.6033 12.3311 28.6258 12.356 28.6544 12.3708L28.7471 12.4186C28.773 12.4319 28.773 12.4696 28.7471 12.4829L28.6544 12.5307C28.6258 12.5455 28.6033 12.5704 28.5913 12.6007L28.542 12.7254C28.5301 12.7554 28.4885 12.7554 28.4766 12.7254L28.4273 12.6007C28.4152 12.5704 28.3928 12.5455 28.3642 12.5307L28.2715 12.4829Z;M27.3355 11.0061C27.3097 10.9928 27.3097 10.955 27.3355 10.9417L28.3313 10.4285C28.36 10.4138 28.3824 10.3889 28.3944 10.3585L28.8993 9.08252C28.9111 9.05247 28.9528 9.05247 28.9647 9.08252L29.4695 10.3585C29.4815 10.3889 29.504 10.4138 29.5326 10.4285L30.5284 10.9417C30.5543 10.955 30.5543 10.9928 30.5284 11.0061L29.5326 11.5193C29.504 11.534 29.4815 11.5589 29.4695 11.5893L28.9647 12.8653C28.9528 12.8953 28.9111 12.8953 28.8993 12.8653L28.3944 11.5893C28.3824 11.5589 28.36 11.534 28.3313 11.5193L27.3355 11.0061Z" begin="0s" dur="3s" repeatCount="indefinite" fill="freeze" calcMode="linear" keyTimes="0;0.5;1"/>
                                    <animate attributeName="opacity" values="1;0.01;1" begin="0s" dur="3s" repeatCount="indefinite" fill="freeze" calcMode="linear" keyTimes="0;0.5;1"/></path>
<path id="2" d="M0.286092 14.8234C0.271006 14.8156 0.271006 14.7936 0.286092 14.7858L1.23184 14.2984C1.24855 14.2898 1.26162 14.2753 1.26864 14.2576L1.74716 13.0481C1.7541 13.0306 1.7784 13.0306 1.78533 13.0481L2.26386 14.2576C2.27087 14.2753 2.28395 14.2898 2.30066 14.2984L3.2464 14.7858C3.26149 14.7936 3.26149 14.8156 3.2464 14.8234L2.30066 15.3108C2.28395 15.3194 2.27087 15.3339 2.26386 15.3516L1.78533 16.5611C1.7784 16.5786 1.7541 16.5786 1.74716 16.5611L1.26864 15.3516C1.26162 15.3339 1.24855 15.3194 1.23184 15.3108L0.286092 14.8234Z" fill="#0D0C0C">
                                    <animate attributeName="d" values="M0.286092 14.8234C0.271006 14.8156 0.271006 14.7936 0.286092 14.7858L1.23184 14.2984C1.24855 14.2898 1.26162 14.2753 1.26864 14.2576L1.74716 13.0481C1.7541 13.0306 1.7784 13.0306 1.78533 13.0481L2.26386 14.2576C2.27087 14.2753 2.28395 14.2898 2.30066 14.2984L3.2464 14.7858C3.26149 14.7936 3.26149 14.8156 3.2464 14.8234L2.30066 15.3108C2.28395 15.3194 2.27087 15.3339 2.26386 15.3516L1.78533 16.5611C1.7784 16.5786 1.7541 16.5786 1.74716 16.5611L1.26864 15.3516C1.26162 15.3339 1.24855 15.3194 1.23184 15.3108L0.286092 14.8234Z;M2.08578 16.3181C2.07069 16.3103 2.07069 16.2883 2.08578 16.2805L2.22301 16.2098C2.23972 16.2012 2.2528 16.1867 2.25982 16.169L2.33053 15.9902C2.33747 15.9727 2.36176 15.9727 2.3687 15.9902L2.43941 16.169C2.44643 16.1867 2.4595 16.2012 2.47621 16.2098L2.61345 16.2805C2.62854 16.2883 2.62854 16.3103 2.61345 16.3181L2.47621 16.3888C2.4595 16.3974 2.44643 16.412 2.43941 16.4297L2.3687 16.6084C2.36176 16.6259 2.33747 16.6259 2.33053 16.6084L2.25982 16.4297C2.2528 16.412 2.23972 16.3974 2.22301 16.3888L2.08578 16.3181Z;M0.286092 14.8234C0.271006 14.8156 0.271006 14.7936 0.286092 14.7858L1.23184 14.2984C1.24855 14.2898 1.26162 14.2753 1.26864 14.2576L1.74716 13.0481C1.7541 13.0306 1.7784 13.0306 1.78533 13.0481L2.26386 14.2576C2.27087 14.2753 2.28395 14.2898 2.30066 14.2984L3.2464 14.7858C3.26149 14.7936 3.26149 14.8156 3.2464 14.8234L2.30066 15.3108C2.28395 15.3194 2.27087 15.3339 2.26386 15.3516L1.78533 16.5611C1.7784 16.5786 1.7541 16.5786 1.74716 16.5611L1.26864 15.3516C1.26162 15.3339 1.24855 15.3194 1.23184 15.3108L0.286092 14.8234Z" begin="0s" dur="3s" repeatCount="indefinite" fill="freeze" calcMode="linear" keyTimes="0;0.5;1"/>
                                    <animate attributeName="opacity" values="1;0.01;1" begin="0s" dur="3s" repeatCount="indefinite" fill="freeze" calcMode="linear" keyTimes="0;0.5;1"/></path>
</g>
<path id="3" d="M1.47513 27.7865C1.43526 27.766 1.43526 27.7078 1.47513 27.6872L2.83908 26.9843C2.88325 26.9616 2.91782 26.9232 2.93635 26.8763L3.62827 25.1275C3.6466 25.0812 3.71082 25.0812 3.72915 25.1275L4.42107 26.8763C4.4396 26.9232 4.47417 26.9616 4.51834 26.9843L5.88229 27.6872C5.92216 27.7078 5.92216 27.766 5.88229 27.7865L4.51834 28.4894C4.47417 28.5122 4.4396 28.5506 4.42107 28.5974L3.72915 30.3462C3.71082 30.3926 3.6466 30.3926 3.62827 30.3462L2.93635 28.5974C2.91782 28.5506 2.88325 28.5122 2.83908 28.4894L1.47513 27.7865Z" fill="#0D0C0C">
                                    <animate attributeName="d" values="M1.47513 27.7865C1.43526 27.766 1.43526 27.7078 1.47513 27.6872L2.83908 26.9843C2.88325 26.9616 2.91782 26.9232 2.93635 26.8763L3.62827 25.1275C3.6466 25.0812 3.71082 25.0812 3.72915 25.1275L4.42107 26.8763C4.4396 26.9232 4.47417 26.9616 4.51834 26.9843L5.88229 27.6872C5.92216 27.7078 5.92216 27.766 5.88229 27.7865L4.51834 28.4894C4.47417 28.5122 4.4396 28.5506 4.42107 28.5974L3.72915 30.3462C3.71082 30.3926 3.6466 30.3926 3.62827 30.3462L2.93635 28.5974C2.91782 28.5506 2.88325 28.5122 2.83908 28.4894L1.47513 27.7865Z;M4.17544 27.0203C4.13557 26.9998 4.13557 26.9416 4.17544 26.9211L4.32998 26.8414C4.37415 26.8187 4.40871 26.7803 4.42725 26.7334L4.50914 26.5265C4.52747 26.4801 4.59169 26.4801 4.61002 26.5265L4.6919 26.7334C4.71044 26.7803 4.74501 26.8187 4.78918 26.8414L4.94371 26.9211C4.98359 26.9416 4.98359 26.9998 4.94371 27.0203L4.78918 27.1C4.74501 27.1227 4.71044 27.1611 4.6919 27.208L4.61002 27.4149C4.59169 27.4613 4.52747 27.4613 4.50914 27.4149L4.42725 27.208C4.40871 27.1611 4.37415 27.1227 4.32998 27.1L4.17544 27.0203Z;M1.47513 27.7865C1.43526 27.766 1.43526 27.7078 1.47513 27.6872L2.83908 26.9843C2.88325 26.9616 2.91782 26.9232 2.93635 26.8763L3.62827 25.1275C3.6466 25.0812 3.71082 25.0812 3.72915 25.1275L4.42107 26.8763C4.4396 26.9232 4.47417 26.9616 4.51834 26.9843L5.88229 27.6872C5.92216 27.7078 5.92216 27.766 5.88229 27.7865L4.51834 28.4894C4.47417 28.5122 4.4396 28.5506 4.42107 28.5974L3.72915 30.3462C3.71082 30.3926 3.6466 30.3926 3.62827 30.3462L2.93635 28.5974C2.91782 28.5506 2.88325 28.5122 2.83908 28.4894L1.47513 27.7865Z" begin="0s" dur="3s" repeatCount="indefinite" fill="freeze" calcMode="linear" keyTimes="0;0.5;1"/>
                                    <animate attributeName="opacity" values="1;0.01;1" begin="0s" dur="3s" repeatCount="indefinite" fill="freeze" calcMode="linear" keyTimes="0;0.5;1"/></path>
</g>
</g>
<defs>
<clipPath id="clip0_14_121">
<rect width="32" height="32" fill="white"/>
</clipPath>
</defs>
</svg>