<svg width="32" height="32" viewBox="0 0 32 32" fill="none" xmlns="http://www.w3.org/2000/svg">
<g id="瓣膜">
<path id="Vector 1179" d="M13.6557 2.62444C10.6011 1.71261 8.04572 2.24326 7.14987 2.62257C6.86693 2.90718 7.00832 3.04952 7.57392 3.4767C8.02641 3.81843 8.51657 4.28354 8.70509 4.47338C10.2602 6.75121 10.1185 7.60519 10.4003 11.4484C10.6257 14.5229 9.50251 17.5514 9.07791 18.5951L10.6335 18.5955C11.3883 16.6979 12.7758 13.2994 13.2287 12.1609C13.7948 10.7377 14.9267 9.17227 15.7754 9.03018C16.624 8.88809 16.1995 9.74199 18.8858 12.8742C21.5721 16.0063 21.43 18.2837 21.4298 18.9954C21.4296 19.7071 21.7101 20.7135 21.71 21.1405C21.7099 21.5675 23.1239 22.5643 22.5584 21.7101C21.9929 20.8559 21.8538 19.8495 21.8541 18.9955C21.8543 18.1415 21.0075 12.0208 21.1496 9.60107C21.2917 7.18139 23.4136 5.75863 24.2626 4.47785C24.9418 3.45322 24.5459 2.81735 24.2631 2.62749C20.445 0.776028 17.4741 3.76423 13.6557 2.62444Z" fill="#D0D0D0" fill-opacity="0.27" stroke="#0D0C0C" stroke-width="0.97" stroke-linecap="round" stroke-linejoin="round">
                                    <animate attributeName="d" values="M13.6557 2.62444C10.6011 1.71261 8.04572 2.24326 7.14987 2.62257C6.86693 2.90718 7.00832 3.04952 7.57392 3.4767C8.02641 3.81843 8.51657 4.28354 8.70509 4.47338C10.2602 6.75121 10.1185 7.60519 10.4003 11.4484C10.6257 14.5229 9.50251 17.5514 9.07791 18.5951L10.6335 18.5955C11.3883 16.6979 12.7758 13.2994 13.2287 12.1609C13.7948 10.7377 14.9267 9.17227 15.7754 9.03018C16.624 8.88809 16.1995 9.74199 18.8858 12.8742C21.5721 16.0063 21.43 18.2837 21.4298 18.9954C21.4296 19.7071 21.7101 20.7135 21.71 21.1405C21.7099 21.5675 23.1239 22.5643 22.5584 21.7101C21.9929 20.8559 21.8538 19.8495 21.8541 18.9955C21.8543 18.1415 21.0075 12.0208 21.1496 9.60107C21.2917 7.18139 23.4136 5.75863 24.2626 4.47785C24.9418 3.45322 24.5459 2.81735 24.2631 2.62749C20.445 0.776028 17.4741 3.76423 13.6557 2.62444Z;M13.5408 2.66953C10.0768 1.69142 7.179 2.26073 6.1631 2.66766C5.84223 2.97298 6.00256 3.12567 6.64395 3.58391C7.15707 3.95051 7.71291 4.44944 7.92669 4.65309C9.69013 7.09661 9.52944 8.01273 9.84887 12.1355C10.1044 15.4337 8.83066 18.6826 8.34914 19.8022L10.1131 19.8027C10.9692 17.767 12.5427 14.1212 13.0563 12.8998C13.6984 11.373 14.982 9.69373 15.9444 9.54128C16.9067 9.38883 16.4253 10.3049 19.4715 13.6649C22.5177 17.0249 22.3565 19.4679 22.3563 20.2314C22.356 20.9948 22.6741 22.0745 22.674 22.5325C22.6738 22.9906 24.2773 24.0599 23.6361 23.1436C22.9949 22.2272 22.8371 21.1477 22.8374 20.2315C22.8377 19.3153 21.8776 12.7493 22.0388 10.1536C22.2 7.55786 24.6063 6.03155 25.5691 4.65756C26.3393 3.55837 25.8904 2.87624 25.5697 2.67258C21.24 0.686488 17.8708 3.89216 13.5408 2.66953Z;M13.6557 2.62444C10.6011 1.71261 8.04572 2.24326 7.14987 2.62257C6.86693 2.90718 7.00832 3.04952 7.57392 3.4767C8.02641 3.81843 8.51657 4.28354 8.70509 4.47338C10.2602 6.75121 10.1185 7.60519 10.4003 11.4484C10.6257 14.5229 9.50251 17.5514 9.07791 18.5951L10.6335 18.5955C11.3883 16.6979 12.7758 13.2994 13.2287 12.1609C13.7948 10.7377 14.9267 9.17227 15.7754 9.03018C16.624 8.88809 16.1995 9.74199 18.8858 12.8742C21.5721 16.0063 21.43 18.2837 21.4298 18.9954C21.4296 19.7071 21.7101 20.7135 21.71 21.1405C21.7099 21.5675 23.1239 22.5643 22.5584 21.7101C21.9929 20.8559 21.8538 19.8495 21.8541 18.9955C21.8543 18.1415 21.0075 12.0208 21.1496 9.60107C21.2917 7.18139 23.4136 5.75863 24.2626 4.47785C24.9418 3.45322 24.5459 2.81735 24.2631 2.62749C20.445 0.776028 17.4741 3.76423 13.6557 2.62444Z" begin="0s" dur="3s" repeatCount="indefinite" fill="freeze" calcMode="linear" keyTimes="0;0.5;1"/></path>
<path id="Vector 1180" d="M7.00833 3.03908C7.40327 3.45785 8.90427 4.24536 11.7488 4.04522C15.3044 3.79505 15.6009 2.89983 18.4158 2.52385" stroke="#0D0C0C" stroke-width="1.03703" stroke-linecap="round" stroke-linejoin="round">
                                    <animate attributeName="d" values="M7.00833 3.03908C7.40327 3.45785 8.90427 4.24536 11.7488 4.04522C15.3044 3.79505 15.6009 2.89983 18.4158 2.52385;M6.00276 3.03902C6.45063 3.45779 8.15277 4.2453 11.3785 4.04516C15.4105 3.79499 15.7468 2.89977 18.939 2.52379;M7.00833 3.03908C7.40327 3.45785 8.90427 4.24536 11.7488 4.04522C15.3044 3.79505 15.6009 2.89983 18.4158 2.52385" begin="0s" dur="3s" repeatCount="indefinite" fill="freeze" calcMode="linear" keyTimes="0;0.5;1"/></path>
<path id="Vector 1181" d="M20.1507 23.413C19.2395 22.4499 19.0763 17.4128 18.9308 15.4868C18.7853 13.5609 18.7485 13.7091 17.7268 11.3384C16.705 8.96775 14.8052 12.5227 14.3663 15.1893C14.0151 17.3225 13.9274 18.3743 12.0272 23.4107L11.6694 23.2625C11.6694 23.1637 11.2678 22.9068 11.7353 22.6699C12.3196 22.3738 12.7582 20.2259 13.3429 18.5964C13.8106 17.2929 13.1491 15.0902 12.7599 14.1518" stroke="#0D0C0C" stroke-width="0.518515" stroke-linecap="round" stroke-linejoin="round">
                                    <animate attributeName="d" values="M20.1507 23.413C19.2395 22.4499 19.0763 17.4128 18.9308 15.4868C18.7853 13.5609 18.7485 13.7091 17.7268 11.3384C16.705 8.96775 14.8052 12.5227 14.3663 15.1893C14.0151 17.3225 13.9274 18.3743 12.0272 23.4107L11.6694 23.2625C11.6694 23.1637 11.2678 22.9068 11.7353 22.6699C12.3196 22.3738 12.7582 20.2259 13.3429 18.5964C13.8106 17.2929 13.1491 15.0902 12.7599 14.1518;M20.6601 24.4131C19.6528 23.4677 19.4724 18.5232 19.3116 16.6326C19.1507 14.742 19.11 14.8875 17.9805 12.5604C16.8509 10.2333 14.7505 13.723 14.2652 16.3405C13.877 18.4345 13.7801 19.467 11.6793 24.4108L11.2837 24.2654C11.2837 24.1684 10.8397 23.9162 11.3565 23.6837C12.0025 23.393 12.4874 21.2845 13.1338 19.685C13.651 18.4054 12.9196 16.2433 12.4893 15.3221;M20.1507 23.413C19.2395 22.4499 19.0763 17.4128 18.9308 15.4868C18.7853 13.5609 18.7485 13.7091 17.7268 11.3384C16.705 8.96775 14.8052 12.5227 14.3663 15.1893C14.0151 17.3225 13.9274 18.3743 12.0272 23.4107L11.6694 23.2625C11.6694 23.1637 11.2678 22.9068 11.7353 22.6699C12.3196 22.3738 12.7582 20.2259 13.3429 18.5964C13.8106 17.2929 13.1491 15.0902 12.7599 14.1518" begin="0s" dur="3s" repeatCount="indefinite" fill="freeze" calcMode="linear" keyTimes="0;0.5;1"/></path>
<path id="Vector 1183" d="M20.135 24.7463C20.0262 24.0762 20.5443 23.0155 20.817 22.5688C20.8625 22.3455 21.1443 21.8654 21.9075 21.7316C22.8614 21.5644 22.8612 22.4019 23.2698 23.0721C23.6784 23.7422 24.6314 27.0927 24.6313 27.4278C24.6312 27.7628 23.132 28.5999 22.7231 28.5998C22.3143 28.5997 21.0876 29.6044 20.1335 29.9391C19.1795 30.2739 19.4524 29.2689 19.5888 28.5989C19.7253 27.9289 20.271 25.5839 20.135 24.7463Z" fill="#D8D8D8" fill-opacity="0.6" stroke="#0D0C0C" stroke-width="0.97" stroke-linecap="round" stroke-linejoin="round">
                                    <animate attributeName="d" values="M20.135 24.7463C20.0262 24.0762 20.5443 23.0155 20.817 22.5688C20.8625 22.3455 21.1443 21.8654 21.9075 21.7316C22.8614 21.5644 22.8612 22.4019 23.2698 23.0721C23.6784 23.7422 24.6314 27.0927 24.6313 27.4278C24.6312 27.7628 23.132 28.5999 22.7231 28.5998C22.3143 28.5997 21.0876 29.6044 20.1335 29.9391C19.1795 30.2739 19.4524 29.2689 19.5888 28.5989C19.7253 27.9289 20.271 25.5839 20.135 24.7463Z;M20.2177 25.092C20.1512 24.4139 20.8262 23.4064 21.1719 22.9875C21.2422 22.7693 21.6011 22.3178 22.4747 22.2575C23.5668 22.1821 23.4959 23.0166 23.9011 23.7235C24.3064 24.4303 25.1007 27.86 25.0723 28.1938C25.0439 28.5276 23.2793 29.2184 22.8173 29.1792C22.3554 29.14 20.8844 30.0238 19.7782 30.2662C18.672 30.5085 19.065 29.5332 19.2757 28.8786C19.4864 28.224 20.3008 25.9396 20.2177 25.092Z;M20.135 24.7463C20.0262 24.0762 20.5443 23.0155 20.817 22.5688C20.8625 22.3455 21.1443 21.8654 21.9075 21.7316C22.8614 21.5644 22.8612 22.4019 23.2698 23.0721C23.6784 23.7422 24.6314 27.0927 24.6313 27.4278C24.6312 27.7628 23.132 28.5999 22.7231 28.5998C22.3143 28.5997 21.0876 29.6044 20.1335 29.9391C19.1795 30.2739 19.4524 29.2689 19.5888 28.5989C19.7253 27.9289 20.271 25.5839 20.135 24.7463Z" begin="0s" dur="3s" repeatCount="indefinite" fill="freeze" calcMode="linear" keyTimes="0;0.5;1"/></path>
<path id="Vector 1184" d="M11.5005 21.6324C11.6097 20.9624 11.0921 19.9014 10.8197 19.4546C10.7743 19.2312 10.4928 18.751 9.7297 18.6167C8.77584 18.4489 8.7756 19.2865 8.36659 19.9564C7.95758 20.6263 7.00271 23.9763 7.00261 24.3113C7.00252 24.6463 8.50127 25.4843 8.91009 25.4844C9.31891 25.4846 10.5451 26.49 11.4989 26.8253C12.4527 27.1606 12.1805 26.1554 12.0444 25.4853C11.9083 24.8153 11.3639 22.4699 11.5005 21.6324Z" fill="#D8D8D8" fill-opacity="0.6" stroke="#0D0C0C" stroke-width="0.97" stroke-linecap="round" stroke-linejoin="round">
                                    <animate attributeName="d" values="M11.5005 21.6324C11.6097 20.9624 11.0921 19.9014 10.8197 19.4546C10.7743 19.2312 10.4928 18.751 9.7297 18.6167C8.77584 18.4489 8.7756 19.2865 8.36659 19.9564C7.95758 20.6263 7.00271 23.9763 7.00261 24.3113C7.00252 24.6463 8.50127 25.4843 8.91009 25.4844C9.31891 25.4846 10.5451 26.49 11.4989 26.8253C12.4527 27.1606 12.1805 26.1554 12.0444 25.4853C11.9083 24.8153 11.3639 22.4699 11.5005 21.6324Z;M11.0966 22.6324C11.2204 21.9624 10.6335 20.9013 10.3246 20.4545C10.2731 20.2312 9.95387 19.7509 9.08852 19.6167C8.00683 19.4489 8.00656 20.2864 7.54274 20.9564C7.07892 21.6263 5.99608 24.9762 5.99597 25.3113C5.99586 25.6463 7.69547 26.4843 8.15908 26.4844C8.62268 26.4845 10.0132 27.4899 11.0948 27.8252C12.1765 28.1605 11.8677 27.1554 11.7134 26.4853C11.5591 25.8152 10.9418 23.4699 11.0966 22.6324Z;M11.5005 21.6324C11.6097 20.9624 11.0921 19.9014 10.8197 19.4546C10.7743 19.2312 10.4928 18.751 9.7297 18.6167C8.77584 18.4489 8.7756 19.2865 8.36659 19.9564C7.95758 20.6263 7.00271 23.9763 7.00261 24.3113C7.00252 24.6463 8.50127 25.4843 8.91009 25.4844C9.31891 25.4846 10.5451 26.49 11.4989 26.8253C12.4527 27.1606 12.1805 26.1554 12.0444 25.4853C11.9083 24.8153 11.3639 22.4699 11.5005 21.6324Z" begin="0s" dur="3s" repeatCount="indefinite" fill="freeze" calcMode="linear" keyTimes="0;0.5;1"/></path>
</g>
</svg>